<svg width="71" height="70" viewBox="0 0 71 70" fill="none" xmlns="http://www.w3.org/2000/svg">
<path d="M47.2777 1.39339C49.3205 2.30605 50.7649 3.95109 52.0597 6.36281L52.4864 7.19516L54.0691 10.6019L54.1212 10.6971L54.1685 10.7799L54.3029 10.9862C55.0241 11.8682 56.2309 12.401 57.0275 12.401C64.3242 12.401 70.2839 18.8334 70.6492 26.9198L70.667 27.7073V50.4742C70.667 60.9718 63.2814 69.5383 54.0264 69.9819L53.272 70H18.062C8.70768 70 1.07814 61.7109 0.683063 51.3211L0.666992 50.4742V27.7073C0.666992 19.255 6.77442 12.401 14.3065 12.401C15.1002 12.401 16.3088 11.8674 17.031 10.9862L17.0559 10.9532L17.0871 10.9075L17.2671 10.5975L18.8454 7.19624C20.2522 4.32622 21.7826 2.40763 24.0536 1.39302C28.2151 -0.464402 43.1195 -0.464402 47.2777 1.39339ZM25.9942 6.86871C25.2194 7.2149 24.5178 8.01622 23.7692 9.40538L23.4451 10.0371L22.098 12.9605L21.7665 13.634C21.4897 14.1507 21.2129 14.5869 20.8968 14.9735C19.2853 16.9397 16.9716 18.0753 14.9149 18.2655L14.3065 18.2941L13.7322 18.3158C9.5569 18.6327 6.21873 22.3789 5.93635 27.063L5.91699 27.7073V50.4742C5.91699 57.7514 10.9981 63.6984 17.3956 64.0867L18.062 64.1069H53.272C59.7537 64.1069 65.0529 58.4011 65.399 51.222L65.417 50.4742V27.7073C65.417 22.7265 61.9669 18.6471 57.6018 18.3158L57.0275 18.2941L56.4181 18.2655C54.3582 18.0752 52.0445 16.9393 50.435 14.9709C50.1231 14.5894 49.8478 14.1563 49.5727 13.6439L49.5065 13.5169L49.4278 13.3592L49.0215 12.5037L47.8878 10.0382C47.1223 8.47807 46.4212 7.5246 45.6644 7.04542L45.3363 6.86871L44.9186 6.71287C41.3166 5.57007 28.7874 5.62202 25.9942 6.86871ZM35.6659 24.3549C43.2617 24.3549 49.4174 31.2647 49.4174 39.7909C49.4174 48.317 43.2617 55.2268 35.6659 55.2268C28.0702 55.2268 21.9144 48.317 21.9144 39.7909C21.9144 31.2647 28.0702 24.3549 35.6659 24.3549ZM35.6659 30.248C30.9697 30.248 27.1644 34.5194 27.1644 39.7909C27.1644 45.0624 30.9697 49.3337 35.6659 49.3337C40.3622 49.3337 44.1674 45.0624 44.1674 39.7909C44.1674 34.5194 40.3622 30.248 35.6659 30.248ZM54.932 21.6088C56.865 21.6088 58.432 23.3677 58.432 25.5375C58.432 27.5523 57.0809 29.2128 55.3402 29.4398L54.932 29.4662C52.9675 29.4662 51.4005 27.7072 51.4005 25.5375C51.4005 23.5227 52.7517 21.8621 54.4924 21.6352L54.932 21.6088Z" fill="#FFC033"/>
</svg>
