<svg width="96" height="96" viewBox="0 0 96 96" fill="none" xmlns="http://www.w3.org/2000/svg">
<g clip-path="url(#clip0_227_126)">
<path d="M81.68 36.04C80.88 33.68 78.64 32 76 32H32C29.36 32 27.16 33.68 26.32 36.04L18 60V92C18 94.2 19.8 96 22 96H26C28.2 96 30 94.2 30 92V88H78V92C78 94.2 79.8 96 82 96H86C88.2 96 90 94.2 90 92V60L81.68 36.04ZM32 76C28.68 76 26 73.32 26 70C26 66.68 28.68 64 32 64C35.32 64 38 66.68 38 70C38 73.32 35.32 76 32 76ZM76 76C72.68 76 70 73.32 70 70C70 66.68 72.68 64 76 64C79.32 64 82 66.68 82 70C82 73.32 79.32 76 76 76ZM26 56L32 38H76L82 56H26Z" fill="#FFC033"/>
</g>
<defs>
<clipPath id="clip0_227_126">
<rect width="96" height="96" fill="white"/>
</clipPath>
</defs>
</svg>
