<svg width="70" height="70" viewBox="0 0 70 70" fill="none" xmlns="http://www.w3.org/2000/svg">
<path fill-rule="evenodd" clip-rule="evenodd" d="M15.2564 39.4872C29.8631 39.4872 30.5128 44.441 30.5128 54.7436C30.5128 59.9056 30.5128 63.5779 28.3446 66.2667C25.8497 69.3646 21.3087 70 15.2564 70C9.2041 70 4.66308 69.3646 2.16821 66.2667C0 63.5779 0 59.9092 0 54.8333L2.69231 54.7436H0C0 44.441 0.649745 39.4872 15.2564 39.4872ZM54.7436 39.4872C69.3503 39.4872 70 44.441 70 54.7436C70 59.9056 70 63.5779 67.8318 66.2667C65.3369 69.3646 60.7959 70 54.7436 70C48.6913 70 44.1503 69.3646 41.6554 66.2667C39.4872 63.5779 39.4872 59.9092 39.4872 54.8333L42.1795 54.7436H39.4872C39.4872 44.441 40.1369 39.4872 54.7436 39.4872ZM15.9965 44.8734L15.2564 44.8718C5.89086 44.8718 5.41058 45.5438 5.38595 53.4048L5.38745 56.4673C5.40447 59.5938 5.52359 61.8523 6.35744 62.8923C7.30872 64.0697 10.1338 64.6154 15.2564 64.6154C20.379 64.6154 23.2041 64.0661 24.1554 62.8887C25.1282 61.679 25.1282 58.8072 25.1282 54.8297C25.1282 45.8547 25.1282 44.9157 15.9965 44.8734ZM55.4837 44.8734L54.7436 44.8718C45.378 44.8718 44.8978 45.5438 44.8731 53.4048L44.8746 56.4673C44.8916 59.5938 45.0108 61.8523 45.8446 62.8923C46.7959 64.0697 49.621 64.6154 54.7436 64.6154C59.8662 64.6154 62.6913 64.0661 63.6426 62.8887C64.6154 61.679 64.6154 58.8072 64.6154 54.8297C64.6154 45.8547 64.6154 44.9157 55.4837 44.8734ZM15.2564 0C29.8631 0 30.5128 4.95385 30.5128 15.2564C30.5128 20.4185 30.5128 24.0908 28.3446 26.7795C25.8497 29.8774 21.3087 30.5128 15.2564 30.5128C9.2041 30.5128 4.66308 29.8774 2.16821 26.7795C0 24.0908 0 20.4221 0 15.3462L2.69231 15.2564H0C0 4.95385 0.649745 0 15.2564 0ZM54.7436 0C69.3503 0 70 4.95385 70 15.2564C70 20.4185 70 24.0908 67.8318 26.7795C65.3369 29.8774 60.7959 30.5128 54.7436 30.5128C48.6913 30.5128 44.1503 29.8774 41.6554 26.7795C39.4872 24.0908 39.4872 20.4221 39.4872 15.3462L42.1795 15.2564H39.4872C39.4872 4.95385 40.1369 0 54.7436 0ZM15.9965 5.38622L15.2564 5.38462C5.89086 5.38462 5.41058 6.05666 5.38595 13.9176L5.38745 16.9801C5.40447 20.1067 5.52359 22.3651 6.35744 23.4051C7.30872 24.5826 10.1338 25.1282 15.2564 25.1282C20.379 25.1282 23.2041 24.579 24.1554 23.4015C25.1282 22.1918 25.1282 19.32 25.1282 15.3426C25.1282 6.36747 25.1282 5.42847 15.9965 5.38622ZM55.4837 5.38622L54.7436 5.38462C45.378 5.38462 44.8978 6.05666 44.8731 13.9176L44.8746 16.9801C44.8916 20.1067 45.0108 22.3651 45.8446 23.4051C46.7959 24.5826 49.621 25.1282 54.7436 25.1282C59.8662 25.1282 62.6913 24.579 63.6426 23.4015C64.6154 22.1918 64.6154 19.32 64.6154 15.3426C64.6154 6.36747 64.6154 5.42847 55.4837 5.38622Z" fill="#FFC033"/>
</svg>
