<svg width="71" height="70" viewBox="0 0 71 70" fill="none" xmlns="http://www.w3.org/2000/svg">
<path fill-rule="evenodd" clip-rule="evenodd" d="M35.3335 0C54.6323 0 70.3335 15.7012 70.3335 35C70.3335 54.2988 54.6323 70 35.3335 70C16.0347 70 0.333496 54.2988 0.333496 35C0.333496 15.7012 16.0347 0 35.3335 0ZM35.3335 5.06708C18.8283 5.06708 5.40057 18.4982 5.40057 35C5.40057 51.5052 18.8283 64.9329 35.3335 64.9329C51.8387 64.9329 65.2664 51.5052 65.2664 35C65.2664 18.4982 51.8387 5.06708 35.3335 5.06708ZM48.412 21.9232C49.0774 22.5921 49.3207 23.5751 49.0369 24.4703L43.659 41.6612C43.4124 42.455 42.7875 43.0766 41.997 43.3232L24.8061 48.7044C24.5562 48.7821 24.2994 48.8193 24.0494 48.8193C23.3874 48.8193 22.7388 48.5592 22.2557 48.0795C21.5902 47.4106 21.347 46.4276 21.6308 45.5324L27.012 28.3415C27.2586 27.5443 27.8802 26.9261 28.6706 26.6795L45.8615 21.2983C46.7635 21.0111 47.7431 21.2577 48.412 21.9232ZM42.7571 27.5781L31.4508 31.1183L27.9139 42.4246L39.2169 38.8844L42.7571 27.5781Z" fill="#FFC033"/>
</svg>
