<svg width="70" height="70" viewBox="0 0 70 70" fill="none" xmlns="http://www.w3.org/2000/svg">
<path fill-rule="evenodd" clip-rule="evenodd" d="M31.6088 42.4229L44.737 63.7214C45.3114 64.6547 46.2089 64.644 46.5715 64.5937C46.934 64.5435 47.8064 64.3209 48.1223 63.2619L64.5389 7.81695C64.8261 6.83693 64.2983 6.16922 64.0614 5.93229C63.8317 5.69536 63.1747 5.1892 62.2234 5.45844L6.73803 21.706C5.68619 22.0147 5.45644 22.8978 5.40618 23.2604C5.35592 23.6302 5.34156 24.5456 6.27134 25.1307L27.8143 38.6033L46.8479 19.369C47.8925 18.3136 49.5977 18.3028 50.6568 19.3475C51.7158 20.3921 51.723 22.1009 50.6783 23.1563L31.6088 42.4229ZM46.2915 70C43.7929 70 41.5025 68.7292 40.1527 66.5466L26.2347 43.963L3.41738 29.6934C0.958303 28.1533 -0.326878 25.4107 0.0716003 22.5281C0.466488 19.6454 2.44452 17.3551 5.22309 16.5402L60.7085 0.29267C63.2609 -0.454015 65.9964 0.253182 67.8775 2.12707C69.7586 4.01891 70.4586 6.78308 69.6975 9.34622L53.281 64.7876C52.4589 67.5769 50.1614 69.5477 47.2859 69.9318C46.9484 69.9749 46.6217 70 46.2915 70Z" fill="#FFC033"/>
</svg>
