<svg width="71" height="70" viewBox="0 0 71 70" fill="none" xmlns="http://www.w3.org/2000/svg">
<path fill-rule="evenodd" clip-rule="evenodd" d="M24.6468 34.4562C24.7114 34.5136 24.7725 34.5675 24.8335 34.6321C28.7068 38.6021 30.8427 43.8608 30.8427 49.4426V63.7434L38.8694 59.3713C39.5012 59.0267 39.8925 58.3519 39.8925 57.6088V49.3995C39.8925 43.8393 42.0068 38.5985 45.8443 34.65L63.2079 16.1817C64.3314 14.9864 64.9489 13.4178 64.9489 11.763V8.40316C64.9489 6.7376 63.635 5.38434 62.0268 5.38434H8.64375C7.03196 5.38434 5.71811 6.7376 5.71811 8.40316V11.763C5.71811 13.4178 6.33555 14.9864 7.45914 16.1781L24.6468 34.4562ZM29.5756 70C28.8504 70 28.1325 69.8062 27.4791 69.4185C26.2155 68.6647 25.4581 67.333 25.4581 65.8541V49.4426C25.4581 45.3684 23.9396 41.5312 21.172 38.5914C21.0894 38.5232 21.0068 38.4478 20.935 38.3688L3.53914 19.8718C1.47144 17.675 0.333496 14.7926 0.333496 11.763V8.40316C0.333496 3.76904 4.06324 0 8.64375 0H62.0268C66.6038 0 70.3335 3.76904 70.3335 8.40316V11.763C70.3335 14.789 69.1955 17.6678 67.135 19.8682L49.7355 38.3688C46.853 41.341 45.2771 45.25 45.2771 49.3995V57.6088C45.2771 60.3225 43.8089 62.8065 41.4468 64.0988L31.5355 69.4975C30.9181 69.8313 30.2468 70 29.5756 70Z" fill="#FFC033"/>
</svg>
