<svg width="71" height="70" viewBox="0 0 71 70" fill="none" xmlns="http://www.w3.org/2000/svg">
<path fill-rule="evenodd" clip-rule="evenodd" d="M35.667 0C54.9665 0 70.667 15.7005 70.667 35C70.667 54.2995 54.9665 70 35.667 70C16.3675 70 0.666992 54.2995 0.666992 35C0.666992 15.7005 16.3675 0 35.667 0ZM35.667 5.12195C19.1914 5.12195 5.78894 18.5244 5.78894 35C5.78894 51.4756 19.1914 64.8781 35.667 64.8781C52.1426 64.8781 65.545 51.4756 65.545 35C65.545 18.5244 52.1426 5.12195 35.667 5.12195ZM34.2356 23.0877C36.0112 23.8287 48.4712 30.2106 48.4712 34.9843C48.4712 39.4575 37.2575 45.7131 34.3927 46.9082C33.2761 47.3726 32.0024 47.8097 30.8107 47.8097C29.8887 47.8097 29.0146 47.5467 28.3009 46.8365C27.7512 46.2936 26.2829 44.8423 26.2761 35.2848C26.2727 25.1365 27.799 23.6272 28.3009 23.1253C30.0868 21.3565 32.9961 22.5687 34.2356 23.0877ZM31.8556 27.6121C31.2512 31.0301 31.2409 39.1945 31.8453 42.4384C34.8434 41.3799 41.338 37.1116 43.0863 34.998C41.3448 32.9458 34.9322 28.7662 31.8556 27.6121Z" fill="#FFC033"/>
</svg>
