<svg width="56" height="66" viewBox="0 0 56 66" fill="none" xmlns="http://www.w3.org/2000/svg">
<path d="M53.4375 15.6562C53.4375 22.6801 42.0477 28.375 28 28.375C13.9523 28.375 2.5625 22.6801 2.5625 15.6562M53.4375 15.6562C53.4375 8.63242 42.0477 2.9375 28 2.9375C13.9523 2.9375 2.5625 8.63242 2.5625 15.6562M53.4375 15.6562V50.3437C53.4375 57.3676 42.0477 63.0625 28 63.0625C13.9523 63.0625 2.5625 57.3676 2.5625 50.3437V15.6562M53.4375 15.6562V27.2187M2.5625 15.6562V27.2187M53.4375 27.2187V38.7812C53.4375 45.8051 42.0477 51.5 28 51.5C13.9523 51.5 2.5625 45.8051 2.5625 38.7812V27.2187M53.4375 27.2187C53.4375 34.2426 42.0477 39.9375 28 39.9375C13.9523 39.9375 2.5625 34.2426 2.5625 27.2187" stroke="white" stroke-width="4" stroke-linecap="round" stroke-linejoin="round"/>
</svg>
