<svg width="43" height="50" viewBox="0 0 43 50" fill="none" xmlns="http://www.w3.org/2000/svg">
<path d="M20.3439 6.29083C20.195 6.77208 20.1147 7.28313 20.1147 7.8125C20.1147 8.76125 20.8847 9.53125 21.8335 9.53125H32.146C32.6018 9.53125 33.039 9.35017 33.3613 9.02784C33.6837 8.70551 33.8647 8.26834 33.8647 7.8125C33.8649 7.29667 33.7877 6.78374 33.6356 6.29083M20.3439 6.29083C20.6694 5.23827 21.3233 4.31756 22.2099 3.66353C23.0965 3.0095 24.1693 2.65651 25.271 2.65625H28.7085C31.0277 2.65625 32.987 4.18708 33.6356 6.29083M20.3439 6.29083C19.4822 6.34354 18.6252 6.40542 17.7681 6.47417C15.1762 6.68958 13.2397 8.89646 13.2397 11.4975V16.4063M33.6356 6.29083C34.4972 6.34354 35.3543 6.40542 36.2114 6.47417C38.8033 6.68958 40.7397 8.89646 40.7397 11.4975V35.3125C40.7397 36.68 40.1965 37.9915 39.2295 38.9585C38.2625 39.9255 36.951 40.4688 35.5835 40.4688H30.4272M13.2397 16.4063H5.50537C4.08225 16.4063 2.92725 17.5613 2.92725 18.9844V44.7656C2.92725 46.1888 4.08225 47.3438 5.50537 47.3438H27.8491C29.2722 47.3438 30.4272 46.1888 30.4272 44.7656V40.4688M13.2397 16.4063H27.8491C29.2722 16.4063 30.4272 17.5613 30.4272 18.9844V40.4688M11.521 33.5938L14.9585 37.0313L21.8335 28.4375" stroke="black" stroke-width="4" stroke-linecap="round" stroke-linejoin="round"/>
</svg>
