<svg width="62" height="58" viewBox="0 0 62 58" fill="none" xmlns="http://www.w3.org/2000/svg">
<path d="M54.729 18.8238C57.3073 19.6521 59.104 22.1138 59.104 24.94V37.4408C59.104 40.7542 56.6336 43.5658 53.329 43.8371C52.3373 43.9158 51.3457 43.9888 50.354 44.0471V53.0625L41.604 44.3125C37.6548 44.3125 33.7465 44.1521 29.879 43.8371C29.0371 43.769 28.2181 43.5288 27.4728 43.1312M54.729 18.8238C54.2783 18.6787 53.8125 18.5857 53.3407 18.5467C45.5297 17.8982 37.6783 17.8982 29.8673 18.5467C26.5686 18.8208 24.104 21.6296 24.104 24.94V37.4408C24.104 39.8821 25.4457 42.0492 27.4728 43.1312M54.729 18.8238V13.3579C54.729 8.63 51.369 4.53209 46.679 3.9225C40.6439 3.14023 34.5646 2.74858 28.479 2.75C22.3103 2.75 16.2348 3.14959 10.279 3.9225C5.589 4.53209 2.229 8.63 2.229 13.3579V31.5171C2.229 36.245 5.589 40.3429 10.279 40.9525C11.9619 41.1712 13.6536 41.3608 15.354 41.5183V55.25L27.4728 43.1312" stroke="black" stroke-width="4" stroke-linecap="round" stroke-linejoin="round"/>
</svg>
